# xmcd
#
# Track frame offsets:
#	182
#	15442
#	31032
#	46972
#	64992
#	79792
#	95012
#	109415
#	127882
#	145422
#
# Disc length: 2156 seconds
#
# Revision: 2
# Processed by: cddbd v1.4PL0 Copyright (c) Steve Scherf et al.
# Submitted via: CDmax 1.8
#
DISCID=80086a0a
DTITLE=Lenny LeBlanc - All My Dreams
DYEAR=1994
DGENRE=Misc
TTITLE0=Born to Worship
TTITLE1=All My Dreams
TTITLE2=Everybody Needs Love
TTITLE3=Treat Her Right
TTITLE4=A Carpenter's Son
TTITLE5=This Thing Called Love
TTITLE6=Take a Look
TTITLE7=The Savior's Hand
TTITLE8=Father Knows Best
TTITLE9=Silent Stars
EXTD=
EXTT0=
EXTT1=
EXTT2=
EXTT3=
EXTT4=
EXTT5=
EXTT6=
EXTT7=
EXTT8=
EXTT9=
PLAYORDER=
